<svg width="512" height="512" viewBox="0 0 200 200" fill="none" xmlns="http://www.w3.org/2000/svg">
  <!-- Main body - light blue with white belly -->
  <path
    d="M 100 40 Q 140 50 160 80 Q 170 100 160 120 Q 150 140 130 150 Q 110 160 100 160 Q 90 160 70 150 Q 50 140 40 120 Q 30 100 40 80 Q 50 50 90 40 Q 95 38 100 40 Z"
    fill="#7db3d3"
    stroke="#3a3a3a"
    stroke-width="4"
    stroke-linecap="round"
    stroke-linejoin="round"
  />
  
  <!-- White belly -->
  <path
    d="M 100 50 Q 130 60 145 85 Q 150 100 145 115 Q 135 130 115 140 Q 100 145 85 140 Q 65 130 55 115 Q 50 100 55 85 Q 60 60 90 50 Q 95 48 100 50 Z"
    fill="#ffffff"
    stroke="#3a3a3a"
    stroke-width="2"
    stroke-linecap="round"
    stroke-linejoin="round"
  />
  
  <!-- Wavy line separating blue and white -->
  <path
    d="M 60 70 Q 80 75 100 75 Q 120 75 140 70"
    stroke="#3a3a3a"
    stroke-width="2"
    stroke-linecap="round"
    fill="none"
  />
  
  <!-- Eye -->
  <ellipse
    cx="70"
    cy="75"
    rx="8"
    ry="10"
    fill="#3a3a3a"
  />
  
  <!-- Nostrils -->
  <circle cx="55" cy="70" r="2" fill="#3a3a3a" />
  <circle cx="50" cy="72" r="2" fill="#3a3a3a" />
  
  <!-- Mouth - open smile -->
  <path
    d="M 45 85 Q 50 95 60 100 Q 70 102 80 100 Q 90 95 95 85"
    stroke="#3a3a3a"
    stroke-width="3"
    stroke-linecap="round"
    fill="none"
  />
  
  <!-- Teeth -->
  <path
    d="M 50 90 L 52 85 L 54 90 M 58 92 L 60 87 L 62 92 M 66 94 L 68 89 L 70 94 M 74 94 L 76 89 L 78 94 M 82 92 L 84 87 L 86 92 M 90 90 L 92 85 L 94 90"
    stroke="#3a3a3a"
    stroke-width="2"
    stroke-linecap="round"
    fill="none"
  />
  
  <!-- Gills - three curved lines -->
  <path
    d="M 85 90 Q 90 95 85 100 M 90 92 Q 95 97 90 102 M 95 94 Q 100 99 95 104"
    stroke="#3a3a3a"
    stroke-width="2.5"
    stroke-linecap="round"
    fill="none"
  />
  
  <!-- Dorsal fin -->
  <path
    d="M 120 60 L 130 40 L 135 50 L 130 65 Z"
    fill="#7db3d3"
    stroke="#3a3a3a"
    stroke-width="3"
    stroke-linecap="round"
    stroke-linejoin="round"
  />
  
  <!-- Pectoral fin -->
  <path
    d="M 70 110 L 60 125 L 75 120 Z"
    fill="#7db3d3"
    stroke="#3a3a3a"
    stroke-width="3"
    stroke-linecap="round"
    stroke-linejoin="round"
  />
  
  <!-- Tail fin - crescent shaped -->
  <path
    d="M 150 120 Q 170 110 175 130 Q 170 150 150 140 Q 155 130 150 120 Z"
    fill="#7db3d3"
    stroke="#3a3a3a"
    stroke-width="3"
    stroke-linecap="round"
    stroke-linejoin="round"
  />
  <path
    d="M 150 140 Q 170 150 175 130 Q 170 110 150 120 Q 155 130 150 140 Z"
    fill="#ffffff"
    stroke="#3a3a3a"
    stroke-width="2"
    stroke-linecap="round"
    stroke-linejoin="round"
  />
</svg>

